# xmcd
#
# Track frame offsets:
#	150
#	15010
#	30476
#	42823
#	60344
#	77222
#	92032
#	104938
#	123314
#	143713
#	158201
#	172966
#
# Disc length: 2486 seconds
#
# Revision: 1
# Processed by: cddbd v1.5.2PL0 Copyright (c) Steve Scherf et al.
# Submitted via: audiograbber 1.83.01
#
DISCID=8b09b40c
DTITLE=Big Tom And The Mainliners - I Am An Island
DYEAR=2010
DGENRE=
TTITLE0=I Am An Island
TTITLE1=A Picture In A Frame
TTITLE2=Lights Coming Over The Hill
TTITLE3=How Are Things In Clay Kentucky
TTITLE4=An Irish Nurse
TTITLE5=There's A Time
TTITLE6=Far Side Banks Of Jordan
TTITLE7=Grandfather Clock
TTITLE8=Supper Time
TTITLE9=Nothing So Fast Like The Passing Of Time
TTITLE10=Faded Coat Of Blue
TTITLE11=One More Christmas With You
EXTD=
EXTT0=
EXTT1=
EXTT2=
EXTT3=
EXTT4=
EXTT5=
EXTT6=
EXTT7=
EXTT8=
EXTT9=
EXTT10=
EXTT11=
PLAYORDER=
